<?xml version="1.0" ?><svg viewBox="0 0 64 64" xmlns="http://www.w3.org/2000/svg"><title/><g id="Crown"><path d="M17.6543,15.2437a1,1,0,0,0-1.4473.1464l-5,6.5a1,1,0,0,0,.1172,1.3472l6,5.5a1,1,0,0,0,1.4072-.0552l5.75-6.16a.9994.9994,0,0,0-.0771-1.4385Z" style="fill:#f37121"/><path d="M52.793,21.89l-5-6.5a1,1,0,0,0-1.4473-.1464l-6.75,5.84a.9994.9994,0,0,0-.0771,1.4385l5.75,6.16a1,1,0,0,0,1.4072.0552l6-5.5A1,1,0,0,0,52.793,21.89Z" style="fill:#f37121"/><path d="M58.7314,19.3184A.9979.9979,0,0,0,58,19a1.9741,1.9741,0,0,1-1.4668-.6489,1.0021,1.0021,0,0,0-.6953-.33,1.0463,1.0463,0,0,0-.7236.2622l-9.06,8.31L34.7705,14.5073a.9968.9968,0,0,0-.6982-.3169.9788.9788,0,0,0-.7178.272,2.024,2.024,0,0,1-2.709,0,.9989.9989,0,0,0-1.416.0449L17.9453,26.5933l-9.0586-8.31a1,1,0,0,0-1.42.0679A1.9741,1.9741,0,0,1,6,19a1,1,0,0,0-.9971,1.0713l2,28A1,1,0,0,0,8,49H56a1,1,0,0,0,.9971-.9287l2-28A.9963.9963,0,0,0,58.7314,19.3184Z" style="fill:#ffbd69"/><path d="M38.9258,34.8276a1.4886,1.4886,0,0,0-1.1279-.999L34.79,33.24,33.3,30.562a1.4862,1.4862,0,0,0-2.6-.001L29.21,33.24l-3.0069.5884a1.488,1.488,0,0,0-.8047,2.4727l2.0879,2.2446-.37,3.0435a1.4881,1.4881,0,0,0,2.1045,1.5278L32,41.8252l2.7793,1.292a1.4881,1.4881,0,0,0,2.1045-1.5283l-.37-3.043L38.6016,36.3A1.488,1.488,0,0,0,38.9258,34.8276Z" style="fill:#f37121"/><path d="M6,13a4,4,0,1,0,2.9443,6.6992A3.9627,3.9627,0,0,0,10,17,4.0042,4.0042,0,0,0,6,13Z" style="fill:#d9455f"/><path d="M32,9a3.9929,3.9929,0,0,0-2.7256,6.9175A4,4,0,0,0,36,13,4.0042,4.0042,0,0,0,32,9Z" style="fill:#d9455f"/><path d="M58,13a4.0042,4.0042,0,0,0-4,4,4.0148,4.0148,0,0,0,4,4,4,4,0,0,0,0-8Z" style="fill:#d9455f"/><circle cx="16" cy="38" r="4" style="fill:#f37121"/><circle cx="48" cy="38" r="4" style="fill:#f37121"/><path d="M58.9482,53.6836l-2-6A.9988.9988,0,0,0,56,47H8a.9988.9988,0,0,0-.9482.6836l-2,6A.9994.9994,0,0,0,6,55H58a.9994.9994,0,0,0,.9482-1.3164Z" style="fill:#5c2a9d"/></g></svg>