<?xml version="1.0" ?><svg data-name="Capa 1" id="Capa_1" viewBox="0 0 20 19.84" xmlns="http://www.w3.org/2000/svg"><path d="M13.89,8.09a3.89,3.89,0,0,0-7.78,0,4.55,4.55,0,0,0,1.18,2.64l.27.35a2,2,0,0,1,.17.32,2.06,2.06,0,0,1,.12.35l0,.12A1.22,1.22,0,0,0,8,12.2a1.73,1.73,0,0,0,.17.21c.05,0,.08.1.13.14a1.36,1.36,0,0,0,.88.32h1.63a1.37,1.37,0,0,0,1.3-1.07s0,0,0,0a1.92,1.92,0,0,1,.29-.67l.27-.35,0,0A4.53,4.53,0,0,0,13.89,8.09ZM9.21,12.27a.8.8,0,0,1-.5-.18.84.84,0,0,1-.28-.47,1.9,1.9,0,0,0-.15-.46A2,2,0,0,0,8,10.73l-.26-.36A4.09,4.09,0,0,1,6.71,8.09a3.29,3.29,0,1,1,6.58,0,4.09,4.09,0,0,1-1.07,2.28l-.26.37a1.76,1.76,0,0,0-.24.42,2,2,0,0,0-.09.26,1.52,1.52,0,0,0-.06.2,1,1,0,0,1-.28.47.8.8,0,0,1-.5.18Z"/><path d="M8.93,13.83h2.14a.3.3,0,0,0,.3-.3.29.29,0,0,0-.3-.3H8.93a.29.29,0,0,0-.3.3A.3.3,0,0,0,8.93,13.83Z"/><path d="M11.11,14.14H8.89a.3.3,0,0,0-.3.3.29.29,0,0,0,.3.3h2.22a.29.29,0,0,0,.3-.3A.3.3,0,0,0,11.11,14.14Z"/><path d="M10.73,15H9.28a.3.3,0,0,0,0,.6h1.45a.3.3,0,1,0,0-.6Z"/><path d="M11.31,8.7V8a.3.3,0,0,0-.3-.3.31.31,0,0,0-.3.3V8.7a.65.65,0,0,1-.7.6.66.66,0,0,1-.71-.6V8a.3.3,0,1,0-.6,0V8.7a1.31,1.31,0,0,0,2.61,0Z"/></svg>