<?xml version="1.0" ?><svg viewBox="0 0 64 64" xmlns="http://www.w3.org/2000/svg"><title/><g data-name="Champ Medal" id="Champ_Medal-3"><path d="M28.939,18.9858l-7.02-16.38A.9993.9993,0,0,0,21,2H7a1,1,0,0,0-.9189,1.394l9.7,22.62a1,1,0,0,0,1.6489.29,20.08,20.08,0,0,1,10.7783-5.9419.9994.9994,0,0,0,.73-1.376Z" style="fill:#d9455f"/><path d="M7,2a1,1,0,0,0-.9189,1.394l9.7,22.62a1,1,0,0,0,1.6489.29,19.9132,19.9132,0,0,1,4.1235-3.3522L12.5713,2Z" style="fill:#5c2a9d"/><path d="M35.061,18.9858l7.02-16.38A.9993.9993,0,0,1,43,2H57a1,1,0,0,1,.9189,1.394l-9.7,22.62a1,1,0,0,1-1.649.29,20.08,20.08,0,0,0-10.7783-5.9419.9994.9994,0,0,1-.73-1.376Z" style="fill:#d9455f"/><path d="M57,2a1,1,0,0,1,.9189,1.394l-9.7,22.62a1,1,0,0,1-1.649.29,19.9132,19.9132,0,0,0-4.1235-3.3522L51.4287,2Z" style="fill:#5c2a9d"/><path d="M32,18A22,22,0,1,0,54,40,21.9463,21.9463,0,0,0,32,18Z" style="fill:#ffbd69"/><path d="M32,57A17,17,0,1,1,49,40,17.019,17.019,0,0,1,32,57Zm0-32A15,15,0,1,0,47,40,15.017,15.017,0,0,0,32,25Z" style="fill:#f37121"/><path d="M36,47H33V32a1,1,0,0,0-1.4473-.8945l-4,2a1,1,0,1,0,.8946,1.789L31,33.6182V47H28a1,1,0,0,0,0,2h8a1,1,0,0,0,0-2Z" style="fill:#f37121"/></g></svg>